<svg width="758" height="572" viewBox="0 0 758 572" fill="none" xmlns="http://www.w3.org/2000/svg">
<path d="M535.288 18.1445C464.621 32.2448 393.008 30.6681 322.971 13.8649C283.967 3.86401 247.26 6.97238 217.624 25.7127C187.988 44.453 169.431 76.2575 161.684 115.81C146.821 186.312 117.501 251.678 74.4427 309.431C13.0987 386.96 -9.91659 460.164 20.26 507.871C50.3915 555.623 126.373 566.254 222.713 544.09C293.38 529.99 364.993 531.566 435.03 548.37C474.079 558.371 510.787 555.217 540.423 536.522C570.059 517.781 588.615 485.977 596.362 446.424C611.225 375.923 640.546 310.557 683.604 252.804C744.948 175.32 767.963 102.116 737.787 54.3638C707.61 6.61199 631.628 -4.01954 535.288 18.1445ZM225.551 38.2363C246.809 24.8117 272.302 20.487 299.776 24.0009C276.806 29.3617 254.601 38.5066 233.928 51.5708C213.255 64.6349 195.464 80.8075 180.781 99.2325C189.429 72.8789 204.247 51.7059 225.506 38.2813L225.551 38.2363ZM173.034 137.299C189.384 107.972 212.489 82.7446 241.9 64.1394C271.311 45.5342 304.01 35.5334 337.519 33.326C339.276 33.9567 341.077 34.6774 342.789 35.3081C311.396 44.6332 280.094 58.5984 250.277 77.4288C220.461 96.3043 194.428 118.558 172.539 142.93C172.719 141.083 172.854 139.146 173.034 137.299ZM171.999 166.4C195.149 137.704 224.109 111.576 258.25 89.9975C292.39 68.419 328.421 53.4628 364.273 44.8585C367.29 46.3451 370.263 47.9669 373.281 49.6337C337.79 63.1483 301.803 81.0327 266.672 103.287C231.541 125.496 199.923 150.318 172.494 176.581C172.269 173.158 172.089 169.734 172.044 166.4H171.999ZM174.16 195.412C202.851 166.896 236.585 139.867 274.554 115.855C312.522 91.8445 351.437 73.014 389.495 59.2741C392.783 61.3464 396.026 63.5087 399.314 65.7612C359.273 84.3663 320.269 105.449 282.931 129.145C245.503 152.751 209.742 178.924 175.737 207.079C175.106 203.115 174.566 199.286 174.115 195.412H174.16ZM32.826 499.942C12.333 467.552 21.0707 418.629 57.0123 360.696C47.4639 403.267 51.6526 442.955 72.0105 475.165C92.3685 507.42 126.418 528.188 168.936 537.873C101.196 545.487 53.274 532.377 32.826 499.942ZM216.813 529.674C157.406 527.377 109.574 506.79 84.5766 467.237C59.5796 427.684 61.5163 375.607 84.9369 320.963C88.0447 316.954 91.2425 312.989 94.5754 308.98C89.531 356.236 98.5389 402.637 123.716 442.505C148.893 482.418 186.952 510.439 231.766 526.161C226.722 527.422 221.722 528.638 216.813 529.719V529.674ZM258.52 518.682C207.265 506.159 163.621 477.823 136.282 434.531C108.943 391.239 102.052 339.658 112.771 287.987C118.176 281.996 123.896 276.049 129.706 270.058C132.634 317.314 147.587 365.606 175.467 409.754C203.346 453.902 240.594 488.139 281.985 511.069C274.103 513.772 266.267 516.385 258.52 518.682ZM300.947 504.222C256.988 482.733 217.173 448.001 187.988 401.826C158.802 355.651 144.524 304.79 143.984 255.822C151.19 248.885 158.622 241.947 166.369 235.055C177.854 284.383 199.788 333.712 227.172 377.049C254.556 420.386 289.687 461.38 329.277 492.915C319.774 496.924 310.315 500.708 300.947 504.222ZM532.451 523.953C511.192 537.378 485.7 541.702 458.226 538.189C481.196 532.828 503.4 523.683 524.074 510.619C544.747 497.555 562.537 481.382 577.22 462.957C568.573 489.311 553.755 510.484 532.496 523.908L532.451 523.953ZM584.967 424.936C568.618 454.263 545.512 479.49 516.102 498.095C486.691 516.7 453.992 526.701 420.482 528.909C418.726 528.278 416.924 527.557 415.213 526.926C446.605 517.601 477.908 503.636 507.724 484.806C537.54 465.93 563.573 443.676 585.463 419.305C585.282 421.152 585.147 423.089 584.967 424.936ZM586.003 395.834C562.853 424.53 533.892 450.659 499.752 472.237C465.612 493.816 429.58 508.772 393.729 517.376C390.711 515.889 387.738 514.268 384.721 512.601C420.212 499.086 456.199 481.202 491.33 458.948C526.461 436.739 558.078 411.917 585.508 385.653C585.733 389.077 585.913 392.501 585.958 395.834H586.003ZM583.841 366.823C555.151 395.339 521.416 422.368 483.448 446.379C445.479 470.39 406.565 489.266 368.507 502.96C365.219 500.888 361.976 498.726 358.688 496.473C398.728 477.868 437.733 456.785 475.07 433.09C512.498 409.484 548.26 383.311 582.265 355.155C582.895 359.119 583.436 362.949 583.886 366.823H583.841ZM467.098 420.521C427.914 445.253 387.063 467.462 344.726 486.202C302.974 454.263 267.888 413.538 239.738 369.12C211.724 324.612 190.014 275.464 179.07 224.018C214.156 193.88 251.764 166.445 290.903 141.669C330.088 116.937 370.939 94.7276 413.276 75.9873C455.028 107.972 490.114 148.651 518.263 193.069C546.278 237.578 567.987 286.726 578.932 338.172C543.846 368.309 506.238 395.744 467.098 420.521ZM591.633 327.135C580.148 277.806 558.214 228.478 530.829 185.141C503.445 141.804 468.314 100.809 428.725 69.275C438.228 65.2656 447.686 61.4815 457.055 57.9677C501.013 79.456 540.828 114.189 570.014 160.364C599.2 206.539 613.477 257.399 614.018 306.322C606.811 313.26 599.38 320.197 591.633 327.09V327.135ZM628.295 292.177C625.368 244.921 610.415 196.628 582.535 152.48C554.655 108.332 517.453 74.0952 476.016 51.1653C483.898 48.4624 491.735 45.8496 499.482 43.5521C550.737 56.0757 594.38 84.4114 621.719 127.703C649.059 170.995 655.95 222.576 645.23 274.247C639.825 280.239 634.105 286.185 628.295 292.177ZM673.065 241.272C669.957 245.281 666.759 249.245 663.426 253.255C668.471 205.998 659.463 159.598 634.286 119.73C609.108 79.8164 571.05 51.796 526.235 36.074C531.28 34.8126 536.279 33.5963 541.189 32.5151C600.596 34.8126 648.473 55.3999 673.425 94.9528C698.422 134.506 696.485 186.582 673.065 241.227V241.272ZM700.989 201.538C710.538 158.967 706.349 119.279 685.991 87.0693C665.633 54.8143 631.583 34.0468 589.066 24.3612C656.805 16.748 704.728 29.8572 725.176 62.2924C745.669 94.7276 736.931 143.606 700.989 201.538Z" fill="url(#paint0_radial_188_985)"/>
<defs>
<radialGradient id="paint0_radial_188_985" cx="0" cy="0" r="1" gradientUnits="userSpaceOnUse" gradientTransform="translate(378.996 281.089) rotate(-32.0405) scale(322.454 336.006)">
<stop offset="0.5" stop-color="#4B72FF"/>
<stop offset="1" stop-color="white"/>
</radialGradient>
</defs>
</svg>
